<svg data-v-fde0c5aa="" xmlns="http://www.w3.org/2000/svg" viewBox="0 0 300 300" class="iconLeft"><!----><defs data-v-fde0c5aa=""><!----></defs><rect data-v-fde0c5aa="" fill="#341952" x="0" y="0" width="300px" height="300px" class="logo-background-square"></rect><defs data-v-fde0c5aa=""><!----></defs><g data-v-fde0c5aa="" id="8531f791-c82e-454f-8629-a89bcdab6d04" fill="#FFFFFF" transform="matrix(2.2712310288700093,0,0,2.2712310288700093,93.63232090797955,131.78472773328647)"><path d="M8.93 2.21L5.67 6.61L2.35 2.21L1.13 2.21L1.13 11.48L2.18 11.48L2.18 3.81L5.67 8.22L9.10 3.81L9.10 11.48L10.15 11.48L10.15 2.21ZM15.02 4.37C12.98 4.37 11.63 5.98 11.63 7.98C11.63 9.98 12.98 11.59 15.02 11.59C16.18 11.59 17.01 11.12 17.53 10.36L17.53 11.48L18.58 11.48L18.58 4.48L17.53 4.48L17.53 5.61C17.01 4.86 16.18 4.37 15.02 4.37ZM15.16 10.64C13.61 10.64 12.68 9.42 12.68 7.98C12.68 6.54 13.61 5.32 15.16 5.32C16.72 5.32 17.58 6.54 17.58 7.98C17.58 9.42 16.72 10.64 15.16 10.64ZM20.40 4.48L20.40 11.48L21.45 11.48L21.45 7.45C21.45 6.19 22.40 5.32 23.56 5.32C24.71 5.32 25.52 6.16 25.52 7.43L25.52 11.48L26.57 11.48L26.57 7.41C26.57 5.42 25.21 4.37 23.77 4.37C22.64 4.37 21.95 4.90 21.45 5.57L21.45 4.48ZM33.78 4.48L33.78 5.60C33.26 4.84 32.44 4.37 31.28 4.37C29.23 4.37 27.89 5.92 27.89 7.92C27.89 9.93 29.23 11.48 31.28 11.48C32.44 11.48 33.26 10.99 33.78 10.23L33.78 11.20C33.78 12.64 33.08 13.41 31.47 13.41C30.41 13.41 29.71 13.01 29.43 12.32L28.27 12.32C28.66 13.54 29.76 14.36 31.53 14.36C33.63 14.36 34.83 13.27 34.83 11.27L34.83 4.48ZM31.42 10.53C29.86 10.53 28.94 9.37 28.94 7.92C28.94 6.48 29.86 5.32 31.42 5.32C32.94 5.32 33.84 6.48 33.84 7.92C33.84 9.37 32.94 10.53 31.42 10.53ZM39.61 4.37C37.56 4.37 36.22 5.98 36.22 7.98C36.22 9.98 37.56 11.59 39.61 11.59C40.77 11.59 41.59 11.12 42.11 10.36L42.11 11.48L43.16 11.48L43.16 4.48L42.11 4.48L42.11 5.61C41.59 4.86 40.77 4.37 39.61 4.37ZM39.75 10.64C38.19 10.64 37.27 9.42 37.27 7.98C37.27 6.54 38.19 5.32 39.75 5.32C41.30 5.32 42.17 6.54 42.17 7.98C42.17 9.42 41.30 10.64 39.75 10.64ZM50.88 4.48L49.41 4.48L46.03 7.95L46.03 1.68L44.98 1.68L44.98 11.48L46.03 11.48L46.03 9.27L47.35 7.97L49.80 11.48L51.09 11.48L48.06 7.24ZM54.61 4.37C52.57 4.37 51.23 5.98 51.23 7.98C51.23 9.98 52.57 11.59 54.61 11.59C55.78 11.59 56.60 11.12 57.12 10.36L57.12 11.48L58.17 11.48L58.17 4.48L57.12 4.48L57.12 5.61C56.60 4.86 55.78 4.37 54.61 4.37ZM54.75 10.64C53.20 10.64 52.28 9.42 52.28 7.98C52.28 6.54 53.20 5.32 54.75 5.32C56.31 5.32 57.18 6.54 57.18 7.98C57.18 9.42 56.31 10.64 54.75 10.64ZM62.43 4.37C60.62 4.37 59.68 5.11 59.68 6.37C59.68 8.93 64.34 7.84 64.34 9.59C64.34 10.54 63.13 10.70 62.55 10.70C61.19 10.70 60.66 10.00 60.59 9.28L59.50 9.28C59.57 10.51 60.59 11.59 62.54 11.59C64.27 11.59 65.39 10.85 65.39 9.49C65.39 6.86 60.73 7.95 60.73 6.27C60.73 5.59 61.31 5.26 62.40 5.26C63.57 5.26 64.02 5.75 64.11 6.36L65.17 6.36C65.04 5.33 64.27 4.37 62.43 4.37ZM69.69 4.37C67.65 4.37 66.30 5.98 66.30 7.98C66.30 9.98 67.65 11.59 69.69 11.59C70.85 11.59 71.68 11.12 72.20 10.36L72.20 11.48L73.25 11.48L73.25 4.48L72.20 4.48L72.20 5.61C71.68 4.86 70.85 4.37 69.69 4.37ZM69.83 10.64C68.28 10.64 67.35 9.42 67.35 7.98C67.35 6.54 68.28 5.32 69.83 5.32C71.39 5.32 72.25 6.54 72.25 7.98C72.25 9.42 71.39 10.64 69.83 10.64Z"></path></g><defs data-v-fde0c5aa=""><!----></defs><g data-v-fde0c5aa="" id="aae35e62-9bf9-4a6b-ab5f-51fb9fed6656" stroke="none" fill="#E96D77" transform="matrix(1.3499628737428933,0,0,1.3499628737428933,40,128.40059402011372)"><path d="M0 32h32V0H0v32zm19.377-19.492l6.936-6.936v20.855h-6.936V12.508zM5.688 5.572l6.936 6.936v13.919H5.688V5.572z"></path></g><!----></svg>